<?xml version="1.0" encoding="utf-8"?>
<!-- Generator: Adobe Illustrator 26.1.0, SVG Export Plug-In . SVG Version: 6.00 Build 0)  -->
<svg version="1.1" id="Layer_1" xmlns="http://www.w3.org/2000/svg" xmlns:xlink="http://www.w3.org/1999/xlink" x="0px" y="0px"
	 viewBox="0 0 364.29 258" style="enable-background:new 0 0 364.29 258;" xml:space="preserve">
<style type="text/css">
	.st0{fill:#092E42;}
	.st1{fill:#FFFFFF;}
	.st2{fill:#002E43;}
	.st3{clip-path:url(#SVGID_00000106109704751220115860000013861657476517768837_);fill:#FFFFFF;}
</style>
<rect x="0" class="st0" width="364.29" height="258"/>
<g>
	<path class="st1" d="M62.21,229.02c-5.11,2.56-8.45,3.15-14.55,3.15c-11.4,0-18.09-4.33-21.43-15.53
		c-1.18-4.13-2.36-7.27-2.36-11.99v-71.17c0-15.34,1.18-29.29,15.73-37.35c3.34-1.57,6.29-1.97,9.63-1.97
		c11.79,0,21.23,1.57,25.36,13.96c0.59,1.57,1.77,6.1,1.77,6.69v29.29H61.62l-1.18-1.18v-24.77c0,0-1.77-2.36-2.16-3.34
		c-1.18-1.57-3.34-2.16-5.11-2.16c-3.93,0-7.27,0.59-9.04,4.33c0,0.59-0.59,1.77-0.59,1.77v92.2c0,2.75,4.13,4.52,6.29,4.52
		c4.52,0,8.45-2.95,8.45-7.27V183.8c0-0.99-0.59-3.14-1.18-4.33l-0.59-0.59h-5.7l-0.98-1.18V166.5c0-1.18,0.98-1.77,1.57-1.77h15.34
		c1.18,0,9.04-0.59,10.03-0.59h0.59l1.18,1.18v17.89c0,6.88-0.59,38.93-0.59,45.81c0,0.99,0,3.15-1.57,3.15h-7.47
		c-0.98,0-2.16-4.33-4.52-4.33h-0.59L62.21,229.02z"/>
	<path class="st1" d="M96.81,227.25v-23.2c0-35.98,0.59-70.18,0.59-106.16c0-0.59,0.98-2.16,1.57-2.16l15.73,0.59
		c0.98,0,1.57,0.98,2.16,1.97v49.35c0,17.3-1.18,34.8-1.18,52.29c0,10.03-0.39,33.22-0.39,33.22l-1.18,0.98H98.38l-0.98-0.98
		L96.81,227.25z"/>
	<path class="st1" d="M164.84,192.85c0.98,0,1.57-1.57,1.57-2.16c0-6.49-2.16-13.56-2.16-18.87c-0.79-8.85-1.18-31.46-4.91-33.23
		l-0.98,1.18c-1.77,13.57-3.34,27.52-4.92,41.29c-0.59,3.15-0.98,5.9-0.98,9.04c-0.59,0.59,0.79,1.57,0.98,1.57L164.84,192.85z
		 M173.49,96.12c4.52,30.86,7.27,57.8,11.4,88.67c0.39,2.16,2.56,22.22,3.14,24.38c0.59,6.49,1.18,12.39,2.16,18.88
		c0,1.96,0.98,3.14,0.59,3.34c0,1.57-14.94,1.57-18.28,1.57c0,0-1.77-3.34-1.77-7.67c-0.39-4.52-0.39-16.71-3.74-16.71
		c-5.7,0-14.55-0.59-15.73-0.59c-4.13,5.51-0.2,23.79-6.49,23.79c-3.14,0.59-6.49,0.59-9.83,0.59c-0.98,0-2.36,0.39-3.14-0.98
		c0-6.09,1.38-12.39,2.16-18.48c4.13-38.53,9.83-73.53,14.15-111.87c0-2.55,0.99-6.09,2.56-6.09h21.82L173.49,96.12z"/>
	<path class="st1" d="M206.13,221.75c1.18-40.7,1.18-82.18,1.77-122.87c0-1.18,0.39-4.33,2.16-4.33c5.9,0,10.03,0.39,15.92,0.39
		c0.59,0,3.34,10.81,3.74,11.99l4.91,20.25c3.74,15.14,8.06,30.87,12.39,45.81c0.59,0.98,1.57,5.31,1.57,6.29
		c0,0.59,0.59,2.75,0.59,3.34c0,0.98,0.59,2.16,1.57,2.16c0.59,0,1.18,0,1.18-0.59v-14.55c0-2.16,0.59-21.43,0.59-23.59V96.71
		l0.99-1.18h14.94c1.57,0,2.16,1.18,2.75,2.16v4.91c0,11.8-0.59,23-0.59,34.8c-0.59,28.51-1.57,94.76-1.57,94.76l-0.99,0.98h-22.61
		c0,0-1.18-0.98-1.57-1.57c-0.59-0.59-1.18-2.16-1.18-2.75c-2.75-11.4-5.31-22.41-8.65-33.23l-0.39-1.18
		c-1.18-2.16-6.09-25.36-7.67-25.36h-0.59l-0.39,0.59c-0.59,19.46-0.59,39.32-0.59,58.59c0,1.77-2.16,3.93-3.74,3.93h-13.37
		l-0.59-0.59l-0.59-1.57V221.75z"/>
	<path class="st1" d="M305.61,233.74c-0.39,0-1.38-1.38-1.38-1.97c0-38.14,1.38-76.87,1.38-115.01c0-2.16,0.2-2.16-0.99-4.13H289.3
		c-0.98,0-1.97-1.96-1.97-2.36V96.9c0-0.59,0.39-0.98,0.99-1.57c20.84,0,43.84,0,51.51,0.98l0.59,0.59
		c-0.2,7.08,0.59,12.39-1.57,16.91c-5.9,0-9.83-0.59-14.35-0.59c-0.98,0-0.98,0.98-1.57,1.97c0,2.56,0.59,53.67,0.59,60.16
		c0,24.77-0.98,51.51-0.98,57.02l-1.57,1.38H305.61z"/>
</g>
<rect x="512.58" y="115.83" class="st2" width="79.62" height="135.68"/>
<g>
	<defs>
		<rect id="SVGID_1_" x="512.58" y="115.83" width="79.62" height="135.68"/>
	</defs>
	<clipPath id="SVGID_00000180330634855582343040000011605908066971893122_">
		<use xlink:href="#SVGID_1_"  style="overflow:visible;"/>
	</clipPath>
	<path style="clip-path:url(#SVGID_00000180330634855582343040000011605908066971893122_);fill:#FFFFFF;" d="M559.46,225.94
		c-3.28,1.64-5.42,2.02-9.34,2.02c-7.32,0-11.61-2.78-13.75-9.97c-0.76-2.65-1.52-4.67-1.52-7.7v-45.68c0-9.84,0.76-18.8,10.1-23.97
		c2.15-1.01,4.04-1.26,6.18-1.26c7.57,0,13.62,1.01,16.28,8.96c0.38,1.01,1.14,3.92,1.14,4.29v18.8h-9.47l-0.76-0.76v-15.9
		c0,0-1.14-1.52-1.39-2.15c-0.76-1.01-2.15-1.39-3.28-1.39c-2.52,0-4.67,0.38-5.8,2.78c0,0.38-0.38,1.13-0.38,1.13v59.18
		c0,1.77,2.65,2.9,4.04,2.9c2.9,0,5.43-1.89,5.43-4.67v-15.65c0-0.63-0.38-2.02-0.76-2.77l-0.38-0.38h-3.66l-0.63-0.76v-7.19
		c0-0.76,0.63-1.14,1.01-1.14h9.84c0.76,0,5.8-0.38,6.43-0.38h0.38l0.76,0.76v11.48c0,4.41-0.38,24.98-0.38,29.4
		c0,0.63,0,2.02-1.01,2.02h-4.79c-0.63,0-1.39-2.78-2.91-2.78h-0.38L559.46,225.94z"/>
</g>
</svg>
